<svg xmlns="http://www.w3.org/2000/svg" xmlns:xlink="http://www.w3.org/1999/xlink" width="630.18" height="480.56" viewBox="0 0 630.18 480.56"><defs><linearGradient id="linear-gradient" x1="-634.67" y1="2172.52" x2="-617.11" y2="2172.52" gradientTransform="translate(933.39 -1860.24)" gradientUnits="userSpaceOnUse"><stop offset="0" stop-color="#fff"/><stop offset="1" stop-color="#ebebec"/></linearGradient><linearGradient id="linear-gradient-2" x1="-513.8" y1="282.37" x2="-513.8" y2="418.6" gradientTransform="matrix(-1, 0, 0, 1, -455.46, 0)" gradientUnits="userSpaceOnUse"><stop offset="0" stop-color="gray"/><stop offset="0.74"/></linearGradient><linearGradient id="linear-gradient-3" x1="-561.37" y1="315.8" x2="-561.37" y2="386.78" xlink:href="#linear-gradient-2"/><linearGradient id="linear-gradient-4" x1="7538.88" y1="328.82" x2="7538.88" y2="487.33" gradientTransform="translate(-6976.59)" xlink:href="#linear-gradient-2"/><linearGradient id="linear-gradient-5" x1="7327.84" y1="328.82" x2="7327.84" y2="487.33" gradientTransform="translate(-6976.59)" xlink:href="#linear-gradient-2"/><linearGradient id="linear-gradient-6" x1="7483.53" y1="367.71" x2="7483.53" y2="450.31" gradientTransform="translate(-6976.59)" xlink:href="#linear-gradient-2"/><linearGradient id="linear-gradient-7" x1="-695.17" y1="282.37" x2="-695.17" y2="418.6" xlink:href="#linear-gradient-2"/><radialGradient id="radial-gradient" cx="850.35" cy="2378.72" r="26.94" gradientTransform="translate(-6009.75 -9332.18) scale(7.43 4.01)" gradientUnits="userSpaceOnUse"><stop offset="0"/><stop offset="1" stop-color="#fff" stop-opacity="0"/></radialGradient><linearGradient id="New_Gradient_Swatch_1" x1="-625.96" y1="2190.56" x2="-625.96" y2="1934.64" gradientTransform="translate(2370.54 828.31) rotate(90)" gradientUnits="userSpaceOnUse"><stop offset="0" stop-color="#f8f8f9"/><stop offset="1" stop-color="#fff"/></linearGradient><linearGradient id="linear-gradient-8" x1="307.35" y1="330.31" x2="308.54" y2="74.4" gradientUnits="userSpaceOnUse"><stop offset="0" stop-color="#f8f8f9"/><stop offset="1" stop-color="#f3f4f4"/></linearGradient><clipPath id="clip-path"><rect id="_Rectangle_" data-name="&lt;Rectangle&gt;" x="299.58" y="304.35" width="15.85" height="15.85" transform="translate(1.46 -1.43) rotate(0.27)" fill="#e6e7e8" stroke-miterlimit="10" stroke-width="1.71" stroke="url(#linear-gradient)"/></clipPath><linearGradient id="New_Gradient_Swatch_1-2" x1="-623.21" y1="2182.9" x2="-623.21" y2="2167.05" gradientTransform="translate(2485.14 937.95) rotate(90)" xlink:href="#New_Gradient_Swatch_1"/><linearGradient id="New_Gradient_Swatch_5" x1="158.18" y1="211.74" x2="191.69" y2="211.74" gradientUnits="userSpaceOnUse"><stop offset="0" stop-color="#e6e6e6"/><stop offset="1" stop-color="#e6e6e6"/></linearGradient><radialGradient id="radial-gradient-2" cx="-296.13" cy="90.04" r="34.05" gradientTransform="matrix(-1.71, 0, 0, 0.32, -269.03, 373.3)" xlink:href="#radial-gradient"/><radialGradient id="radial-gradient-3" cx="-191.46" cy="90.04" r="34.05" gradientTransform="matrix(-1.71, 0, 0, 0.32, -269.03, 373.3)" xlink:href="#radial-gradient"/><clipPath id="clip-path-2"><path id="_Compound_Clipping_Path_" data-name="&lt;Compound Clipping Path&gt;" d="M58.34,310.06a42,42,0,1,1-42,42,42,42,0,0,1,42-42m0-8a50,50,0,1,0,50,50,50,50,0,0,0-50-50Z" fill="url(#linear-gradient-2)"/></clipPath><clipPath id="clip-path-3"><polygon points="1.49 354.42 36.33 334.05 67.18 354.42 124.88 354.42 84.32 291.96 10.91 296.63 1.49 354.42" fill="none"/></clipPath><clipPath id="clip-path-4"><path id="_Compound_Clipping_Path_2" data-name="&lt;Compound Clipping Path&gt;" d="M239.71,310.06a42,42,0,1,1-42,42,42,42,0,0,1,42-42m0-8a50,50,0,1,0,50,50,50,50,0,0,0-50-50Z" fill="url(#linear-gradient-7)"/></clipPath><clipPath id="clip-path-5"><polygon points="234.57 296.63 234.57 352.05 183.92 352.05 187.43 329.8 205.15 304.44 234.57 296.63" fill="none"/></clipPath><clipPath id="clip-path-6"><polygon points="61.57 347.03 66.15 352.05 108.52 309.77 104.59 306.88 61.57 347.03" fill="none"/></clipPath><clipPath id="clip-path-7"><path id="_Clipping_Path_" data-name="&lt;Clipping Path&gt;" d="M148.85,353.14a15.85,15.85,0,0,1-29.22,7.46,20.77,20.77,0,0,0-16.22-9.4l-40.45-2.73,13.14-12.2H133A15.85,15.85,0,0,1,148.85,353.14Z" fill="url(#linear-gradient-3)"/></clipPath><linearGradient id="linear-gradient-13" x1="-639.79" y1="228.25" x2="-649.7" y2="203.08" gradientTransform="matrix(-1, 0, 0, 1, -455.46, 0)" gradientUnits="userSpaceOnUse"><stop offset="0.26"/><stop offset="1" stop-color="gray"/></linearGradient><linearGradient id="linear-gradient-14" x1="-549.32" y1="248.27" x2="-549.32" y2="207.77" xlink:href="#linear-gradient-13"/><linearGradient id="New_Gradient_Swatch_5-2" x1="117" y1="122.25" x2="150.54" y2="122.25" xlink:href="#New_Gradient_Swatch_5"/><linearGradient id="New_Gradient_Swatch_5-3" x1="133.49" y1="108.76" x2="160.74" y2="108.76" xlink:href="#New_Gradient_Swatch_5"/><linearGradient id="New_Gradient_Swatch_5-4" x1="73.26" y1="283.89" x2="155.92" y2="283.89" xlink:href="#New_Gradient_Swatch_5"/><linearGradient id="New_Gradient_Swatch_5-5" x1="117.2" y1="174.18" x2="189.87" y2="174.18" xlink:href="#New_Gradient_Swatch_5"/><radialGradient id="radial-gradient-4" cx="4398.44" cy="297.49" r="39.62" gradientTransform="translate(-7163.01 373.3) scale(1.71 0.32)" xlink:href="#radial-gradient"/><radialGradient id="radial-gradient-5" cx="4520.23" cy="297.49" r="39.62" gradientTransform="translate(-7163.01 373.3) scale(1.71 0.32)" xlink:href="#radial-gradient"/><clipPath id="clip-path-8"><path id="_Compound_Clipping_Path_3" data-name="&lt;Compound Clipping Path&gt;" d="M562.3,361a48.87,48.87,0,1,1-48.87,48.87A48.92,48.92,0,0,1,562.3,361m0-9.31a58.17,58.17,0,1,0,58.17,58.17,58.17,58.17,0,0,0-58.17-58.17Z" fill="url(#linear-gradient-4)"/></clipPath><clipPath id="clip-path-9"><polygon points="628.45 412.65 587.9 388.95 552.01 412.65 484.87 412.65 532.07 339.97 617.49 345.41 628.45 412.65" fill="none"/></clipPath><clipPath id="clip-path-10"><path id="_Compound_Clipping_Path_4" data-name="&lt;Compound Clipping Path&gt;" d="M351.25,361a48.87,48.87,0,1,1-48.87,48.87A48.92,48.92,0,0,1,351.25,361m0-9.31a58.17,58.17,0,1,0,58.17,58.17,58.17,58.17,0,0,0-58.17-58.17Z" fill="url(#linear-gradient-5)"/></clipPath><clipPath id="clip-path-11"><polygon points="357.24 345.41 357.24 409.89 416.17 409.9 412.09 384 391.47 354.5 357.24 345.41" fill="none"/></clipPath><clipPath id="clip-path-12"><polygon points="558.54 404.05 553.21 409.89 503.91 360.7 508.48 357.33 558.54 404.05" fill="none"/></clipPath><clipPath id="clip-path-13"><path id="_Clipping_Path_2" data-name="&lt;Clipping Path&gt;" d="M457,411.16a18.45,18.45,0,0,0,34,8.68,24.17,24.17,0,0,1,18.88-10.94l47.07-3.17-15.29-14.2H475.4A18.45,18.45,0,0,0,457,411.16Z" fill="url(#linear-gradient-6)"/></clipPath><linearGradient id="linear-gradient-18" x1="7392.28" y1="265.84" x2="7380.76" y2="236.55" gradientTransform="translate(-6976.59)" xlink:href="#linear-gradient-13"/><linearGradient id="linear-gradient-19" x1="7494.36" y1="296.77" x2="7494.36" y2="249.65" gradientTransform="translate(-6976.59)" xlink:href="#linear-gradient-13"/><linearGradient id="New_Gradient_Swatch_5-6" x1="485.27" y1="178.79" x2="446.33" y2="178.79" xlink:href="#New_Gradient_Swatch_5"/><linearGradient id="New_Gradient_Swatch_5-7" x1="466.12" y1="163.12" x2="434.48" y2="163.12" xlink:href="#New_Gradient_Swatch_5"/><linearGradient id="New_Gradient_Swatch_5-8" x1="537.67" y1="341.19" x2="424.86" y2="341.19" xlink:href="#New_Gradient_Swatch_5"/><linearGradient id="New_Gradient_Swatch_5-9" x1="-7876.58" y1="247.34" x2="-7837.67" y2="247.34" gradientTransform="matrix(-1, 0, 0, 1, -7432.05, 0)" xlink:href="#New_Gradient_Swatch_5"/><linearGradient id="New_Gradient_Swatch_5-10" x1="485.03" y1="221.3" x2="407.75" y2="221.3" xlink:href="#New_Gradient_Swatch_5"/><linearGradient id="linear-gradient-20" x1="307.01" y1="177.93" x2="307.01" y2="221.05" gradientTransform="matrix(1, 0, 0, 1, 0, 0)" xlink:href="#linear-gradient-2"/><linearGradient id="linear-gradient-23" x1="9399.25" y1="-210.68" x2="9442.07" y2="-210.68" gradientTransform="matrix(-0.96, 0.29, 0.29, 0.96, 9212.32, -2465.48)" xlink:href="#linear-gradient-2"/><linearGradient id="linear-gradient-24" x1="9398.87" y1="-217.7" x2="9443.59" y2="-217.7" gradientTransform="matrix(-0.96, 0.29, 0.29, 0.96, 9212.32, -2465.48)" gradientUnits="userSpaceOnUse"><stop offset="0" stop-color="#4d70ee"/><stop offset="0.42" stop-color="#4b6eee"/><stop offset="0.62" stop-color="#4368ed"/><stop offset="0.78" stop-color="#365eec"/><stop offset="0.91" stop-color="#244fea"/><stop offset="1" stop-color="#1140e8"/></linearGradient><linearGradient id="linear-gradient-25" x1="7968.25" y1="1265.89" x2="7973.39" y2="1265.89" gradientTransform="matrix(-1, -0.03, -0.03, 1, 8150.89, -904.23)" xlink:href="#linear-gradient-24"/><linearGradient id="linear-gradient-26" x1="16833.03" y1="-2434.13" x2="16878.42" y2="-2434.13" gradientTransform="translate(-16375.71 -2465.48) rotate(17.05)" xlink:href="#linear-gradient-2"/><linearGradient id="linear-gradient-27" x1="16832.63" y1="-2441.57" x2="16880.02" y2="-2441.57" gradientTransform="translate(-16375.71 -2465.48) rotate(17.05)" gradientUnits="userSpaceOnUse"><stop offset="0" stop-color="#fb518f"/><stop offset="0.42" stop-color="#fb4f8e"/><stop offset="0.63" stop-color="#fb4789"/><stop offset="0.78" stop-color="#fa3a81"/><stop offset="0.91" stop-color="#fa2875"/><stop offset="1" stop-color="#f9176a"/></linearGradient><linearGradient id="linear-gradient-28" x1="15722.84" y1="1561.37" x2="15728.28" y2="1561.37" gradientTransform="translate(-15314.28 -904.23) rotate(-1.77)" xlink:href="#linear-gradient-27"/></defs><title>two-bikes</title><g style="isolation:isolate"><g id="Layer_1" data-name="Layer 1"><g opacity="0.5"><ellipse cx="307.65" cy="200.11" rx="200.12" ry="107.94" transform="translate(106.11 506.83) rotate(-89.73)" fill="url(#radial-gradient)"/></g><line x1="245.62" y1="105.76" x2="245.58" y2="114.31" fill="none" stroke="#e3e3e3" stroke-linecap="round" stroke-miterlimit="10" stroke-width="2.28"/><line x1="245.54" y1="122.8" x2="245.48" y2="136.78" fill="none" stroke="#e3e3e3" stroke-linecap="round" stroke-miterlimit="10" stroke-width="2.28"/><line x1="245.46" y1="140.92" x2="245.39" y2="154.91" fill="none" stroke="#e3e3e3" stroke-linecap="round" stroke-miterlimit="10" stroke-width="2.28"/><g id="_Rectangle_2" data-name="&lt;Rectangle&gt;"><rect x="179.97" y="143.32" width="255.92" height="125.46" rx="16.83" ry="16.83" transform="translate(100.44 513.01) rotate(-89.73)" fill="#e6e6e6"/></g><g id="_Rectangle_3" data-name="&lt;Rectangle&gt;"><rect x="179.98" y="139.62" width="255.92" height="125.46" rx="16.83" ry="16.83" transform="translate(104.16 509.35) rotate(-89.73)" fill="url(#New_Gradient_Swatch_1)"/><path d="M262.56,75.32h.07l91.8.43a15.69,15.69,0,0,1,15.62,15.76l-1,222.26a15.72,15.72,0,0,1-15.69,15.62h-.07l-91.8-.43a15.71,15.71,0,0,1-15.62-15.76l1-222.26a15.72,15.72,0,0,1,15.69-15.62m0-1.14a16.83,16.83,0,0,0-16.83,16.75l-1,222.26a16.83,16.83,0,0,0,16.75,16.91l91.8.43h.08a16.83,16.83,0,0,0,16.83-16.75l1-222.26a16.83,16.83,0,0,0-16.75-16.91l-91.8-.43Z" fill="url(#linear-gradient-8)"/></g><rect x="251.3" y="105.12" width="113.46" height="189.99" transform="translate(0.94 -1.43) rotate(0.27)" fill="#ffd900"/><circle cx="293.86" cy="90.59" r="1.78" transform="translate(201.9 384.03) rotate(-89.73)" fill="#e3e3e3"/><circle cx="308.52" cy="84" r="1.22" transform="translate(223.08 392.12) rotate(-89.73)" fill="#e3e3e3"/><line x1="300.76" y1="90.63" x2="316.99" y2="90.7" fill="none" stroke="#e3e3e3" stroke-linecap="round" stroke-miterlimit="10" stroke-width="1.71"/><rect id="_Rectangle_4" data-name="&lt;Rectangle&gt;" x="299.58" y="304.35" width="15.85" height="15.85" transform="translate(1.46 -1.43) rotate(0.27)" fill="#e6e7e8"/><g clip-path="url(#clip-path)"><rect x="302.24" y="306.81" width="15.85" height="15.85" transform="translate(-6.01 623.44) rotate(-89.73)" fill="url(#New_Gradient_Swatch_1-2)"/></g><rect id="_Rectangle_5" data-name="&lt;Rectangle&gt;" x="299.58" y="304.35" width="15.85" height="15.85" transform="translate(1.46 -1.43) rotate(0.27)" fill="none" stroke-miterlimit="10" stroke-width="1.71" stroke="url(#linear-gradient)"/><path d="M102,314.71l42.6-63.44,1.69,12.46-65.77-42a14.94,14.94,0,1,1,16.07-25.19A16.2,16.2,0,0,1,98.46,198l58.49,51.63,1,.84a8.23,8.23,0,0,1,.74,11.62l-50.45,57.4a3.9,3.9,0,0,1-6.17-4.75Z" fill="#ccc"/><polygon points="121.57 252.64 80.13 221.45 68.22 212.48 87.64 188.51 98.88 198.3 138 232.36 147.85 240.93 132.01 260.49 121.57 252.64" fill="#1140e8"/><path d="M118.78,327.86l-17.77-6A4.38,4.38,0,0,1,99,315l1-1.25,2.53-3.19a5.81,5.81,0,1,1,9.09,7.22,5.91,5.91,0,0,1-1.91,1.56L106,321.25l-1.05-8.1,16.17,9.48a2.89,2.89,0,0,1-2.38,5.24Z" fill="#1140e8"/><polygon points="84.67 235.78 85.77 238.59 89.5 237.18 88.19 233.59 84.67 235.78" fill="#58595b"/><path d="M158.18,199.78s16.24,20.06,22.05,23,9.55-1.4,11.46-5.22Z" fill="url(#New_Gradient_Swatch_5)"/><g opacity="0.5"><ellipse cx="237.08" cy="401.95" rx="58.19" ry="10.83" fill="url(#radial-gradient-2)"/></g><g opacity="0.5"><ellipse cx="58.19" cy="401.95" rx="58.19" ry="10.83" fill="url(#radial-gradient-3)"/></g><polyline points="127.11 348.75 110.52 348.75 104.22 348.75 102.22 348.75 97.46 348.75 97.45 348.75 90.01 348.75 90 348.75 83.23 348.75 76.85 348.75 72.43 348.75" fill="none"/><polyline points="165.96 348.75 174.69 348.75 177.72 348.75 197.12 348.75 202.77 348.75 207.12 348.75 209.98 348.75 213.44 348.75" fill="none"/><polyline points="55.16 348.75 76.85 348.75 83.23 348.75 90 348.75 90.01 348.75 97.45 348.75 97.46 348.75 102.22 348.75 104.22 348.75 110.52 348.75 114.16 348.75" fill="none"/><rect x="120.03" y="324.89" width="4" height="27.65" transform="translate(-195.84 169.66) rotate(-42.18)" fill="#231f20"/><rect x="106.44" y="317.79" width="5.14" height="17.71" transform="translate(-235.32 322.14) rotate(-70.79)" fill="#231f20"/><polygon points="47.61 399.41 47.8 398.65 70.94 305.58 69.43 305.2 69.24 305.96 46.11 399.03 47.61 399.41" fill="#bbbdbf"/><polygon points="71.13 398.98 72.62 398.55 72.41 397.81 45.91 305.63 44.42 306.06 44.63 306.8 71.13 398.98" fill="#bbbdbf"/><rect x="57.75" y="303.96" width="1.55" height="96.68" transform="translate(-235.71 149.89) rotate(-46.04)" fill="#bbbdbf"/><polygon points="105.25 364.72 105.62 363.21 104.87 363.03 11.79 339.89 11.42 341.4 12.17 341.58 105.25 364.72" fill="#bbbdbf"/><polygon points="12.28 366.41 13.02 366.19 105.19 339.69 104.77 338.2 104.02 338.42 11.85 364.92 12.28 366.41" fill="#bbbdbf"/><rect x="10.18" y="351.53" width="96.68" height="1.55" transform="translate(-235.7 149.88) rotate(-46.04)" fill="#bbbdbf"/><circle cx="58.52" cy="352.31" r="9.74" transform="translate(-298.38 365.06) rotate(-82.62)" fill="#535354"/><path id="_Compound_Clipping_Path_5" data-name="&lt;Compound Clipping Path&gt;" d="M58.34,310.06a42,42,0,1,1-42,42,42,42,0,0,1,42-42m0-8a50,50,0,1,0,50,50,50,50,0,0,0-50-50Z" fill="url(#linear-gradient-2)"/><g clip-path="url(#clip-path-2)"><image width="147" height="138" transform="translate(-10.23 282.36)" opacity="0.6" xlink:href="two-bikes1.png" style="mix-blend-mode:luminosity"/><g clip-path="url(#clip-path-3)"><path d="M4.81,352.05a53.71,53.71,0,1,1,53.71,53.71A53.77,53.77,0,0,1,4.81,352.05Zm7.43,0a46.28,46.28,0,1,0,46.28-46.28A46.33,46.33,0,0,0,12.24,352.05Z" fill="#ffd900"/></g></g><path d="M4.82,352.06c0,.14,0,.27,0,.41l7.6-4.44a46.28,46.28,0,0,1,92.38,4c0,.79,0,1.58-.06,2.36h7.42c0-.78.06-1.57.06-2.36a53.71,53.71,0,1,0-107.41,0Z" fill="#ffd900"/><polygon points="228.8 399.41 228.99 398.65 252.13 305.58 250.62 305.2 227.3 399.03 228.8 399.41" fill="#bbbdbf"/><polygon points="252.32 398.98 253.81 398.55 227.1 305.63 225.61 306.06 225.82 306.8 252.32 398.98" fill="#bbbdbf"/><rect x="238.94" y="303.96" width="1.55" height="96.68" transform="translate(-180.29 280.32) rotate(-46.04)" fill="#bbbdbf"/><polygon points="286.44 364.72 286.81 363.21 286.06 363.03 192.98 339.89 192.61 341.4 193.36 341.58 286.44 364.72" fill="#bbbdbf"/><polygon points="193.47 366.41 194.21 366.19 286.39 339.69 285.96 338.2 285.21 338.42 193.04 364.92 193.47 366.41" fill="#bbbdbf"/><rect x="191.37" y="351.53" width="96.68" height="1.55" transform="translate(-180.28 280.3) rotate(-46.04)" fill="#bbbdbf"/><circle cx="239.71" cy="352.31" r="9.74" transform="translate(-140.48 544.75) rotate(-82.62)" fill="#535354"/><path id="_Compound_Clipping_Path_6" data-name="&lt;Compound Clipping Path&gt;" d="M239.71,310.06a42,42,0,1,1-42,42,42,42,0,0,1,42-42m0-8a50,50,0,1,0,50,50,50,50,0,0,0-50-50Z" fill="url(#linear-gradient-7)"/><g clip-path="url(#clip-path-4)"><image width="133" height="134" transform="translate(172.77 286.36)" opacity="0.6" xlink:href="two-bikes2.png" style="mix-blend-mode:luminosity"/><g clip-path="url(#clip-path-5)"><path d="M185.82,352.05a53.89,53.89,0,1,1,53.89,53.89A54,54,0,0,1,185.82,352.05Zm7.8,0a46.1,46.1,0,1,0,46.1-46.1A46.15,46.15,0,0,0,193.62,352.05Z" fill="#535354"/></g></g><path d="M185.81,352.06h7.8a46.16,46.16,0,0,1,41-45.81v-7.84A54,54,0,0,0,185.81,352.06Z" fill="#535354"/><g clip-path="url(#clip-path-6)"><path d="M4.81,352.05a53.71,53.71,0,1,1,53.71,53.71A53.77,53.77,0,0,1,4.81,352.05Zm7.43,0a46.28,46.28,0,1,0,46.28-46.28A46.33,46.33,0,0,0,12.24,352.05Z" fill="#ffbe06"/></g><polygon points="115.8 314.15 119.55 312.77 89.88 232.63 86.13 234.01 115.8 314.15" fill="#808184"/><rect x="201.21" y="248.49" width="4" height="65.47" transform="translate(-84.79 87.74) rotate(-20.25)" fill="#535354"/><rect x="116.89" y="286.7" width="6.86" height="69.57" transform="translate(-103.84 61.51) rotate(-20.25)" fill="#ffd900"/><path d="M197.46,275.75l0,.07,1.62,4,5.78,14.4.79,2,4.09,10.2,2.09,5.14c.73,1.72,1.47,3.43,2.26,5.12a157.5,157.5,0,0,0,10.79,19.59c1,1.57,2.06,3.11,3.12,4.64s2.15,3,3.23,4.5l6.44,8.91a2.46,2.46,0,0,0,4-2.84l-6.29-9c-2.13-3-4.12-6-6-9a150.88,150.88,0,0,1-10-19.13c-.72-1.65-1.4-3.31-2.06-5l-1.93-5.1-3.86-10.29-2.37-6.32-5.35-14.27a3,3,0,0,0-.38-.73,3.43,3.43,0,0,0-6,3.14Z" fill="#ffd900"/><path d="M56.85,353.43a2,2,0,0,0,1.36-.54L113.81,301a2,2,0,0,0-2.73-2.92L55.49,350a2,2,0,0,0,1.36,3.46Z" fill="#ffd900"/><path d="M82.47,324.06a2.56,2.56,0,0,0,1.77-.7L100.46,308l-7-7.69a2.57,2.57,0,1,0-3.8,3.47l3.62,4L80.7,319.62a2.57,2.57,0,0,0,1.77,4.44Z" fill="#535354"/><path d="M125.84,338.27h11.93a47.67,47.67,0,0,0,19.63-4.2l23.75-10.65a2,2,0,0,0-1.64-3.65l-23.75,10.65a43.71,43.71,0,0,1-18,3.85H125.84a2,2,0,1,0,0,4Z" fill="#ffd900"/><path d="M54.67,352.1A3.43,3.43,0,0,0,58,355.47l47.4.76,23.71.39,3,0,1.48,0h1.55a53.32,53.32,0,0,0,19.1-3.54,53.75,53.75,0,0,0,25.28-20.1l.88-1.32.81-1.24,1.62-2.47,6.48-9.93,15.58-23.86,4.33-6.64-5.35-14.27a3,3,0,0,0-.38-.73l-4.39,7.24L179.6,312l-6.14,10.13-2.31,3.8-.73,1.18a42.51,42.51,0,0,1-3.07,4.27,43.53,43.53,0,0,1-27,15.5,45.48,45.48,0,0,1-5.32.5l-.67,0h-.74l-1.48,0-3,0-23.71.39-47.4.76A3.42,3.42,0,0,0,54.67,352.1Z" fill="#ffd900"/><path d="M54.67,352.1A3.43,3.43,0,0,0,58,355.47l47.4.76,23.71.39,3,0,1.48,0h1.55a53.32,53.32,0,0,0,19.1-3.54,53.75,53.75,0,0,0,25.28-20.1l.88-1.32.81-1.24,1.62-2.47,6.48-9.93,15.54-23.81-2.05-4.61-25.66,40.52A47.83,47.83,0,0,1,137,352.45l-75.92.4a10.58,10.58,0,0,1-6.19-2A3.36,3.36,0,0,0,54.67,352.1Z" fill="#ffbe06"/><path d="M104.29,292.77a1.43,1.43,0,0,0,.52-.1l8.58-3.33a1.43,1.43,0,0,0-1-2.66L103.77,290a1.43,1.43,0,0,0,.52,2.76Z" fill="#535354"/><path d="M195.19,275.15a1.43,1.43,0,0,0,.52-.1l8.58-3.33a1.43,1.43,0,1,0-1-2.66l-8.58,3.33a1.43,1.43,0,0,0,.52,2.76Z" fill="#535354"/><path d="M195.19,275.15a1.43,1.43,0,0,0,.52-.1l8.58-3.33a1.43,1.43,0,1,0-1-2.66l-8.58,3.33a1.43,1.43,0,0,0,.52,2.76Z" fill="#535354"/><path id="_Clipping_Path_3" data-name="&lt;Clipping Path&gt;" d="M148.85,353.14a15.85,15.85,0,0,1-29.22,7.46,20.77,20.77,0,0,0-16.22-9.4l-40.45-2.73,13.14-12.2H133A15.85,15.85,0,0,1,148.85,353.14Z" fill="url(#linear-gradient-3)"/><g clip-path="url(#clip-path-7)"><polygon points="131.1 353.48 138.91 369.65 142.41 365.9 131.1 353.48"/></g><rect x="139.88" y="348.55" width="4" height="27.65" transform="translate(-206.58 189.12) rotate(-42.18)" fill="#535354"/><rect x="148.74" y="365.04" width="5.14" height="17.71" transform="translate(-251.56 393.79) rotate(-70.79)" fill="#535354"/><path d="M197.58,259.85l3.9-31.24a7.54,7.54,0,0,0-5.41-8.15l-12.8-3.7-1.11,3.84,12.8,3.7a3.55,3.55,0,0,1,2.55,3.83l-3.9,31.22Z" fill="#535354"/><path d="M192.38,225.19a3.71,3.71,0,0,0,1-7.28l-9.66-2.79a3.71,3.71,0,0,0-2.06,7.14l9.66,2.79A3.71,3.71,0,0,0,192.38,225.19Z" fill="url(#linear-gradient-13)"/><path d="M118,366.16l-.57,0a.86.86,0,0,1-.8-.91.84.84,0,0,1,.91-.8l.57,0a.86.86,0,0,1-.06,1.71Zm-5.13-.33-.57,0a.86.86,0,0,1-.8-.91.84.84,0,0,1,.91-.8l.57,0a.86.86,0,0,1-.06,1.71Zm-5.13-.33-.57,0a.86.86,0,0,1-.8-.91.84.84,0,0,1,.91-.8l.57,0a.86.86,0,0,1-.06,1.71Zm-5.13-.33-.57,0a.86.86,0,0,1-.8-.91.84.84,0,0,1,.91-.8l.57,0a.86.86,0,0,1-.06,1.71Zm-5.13-.33-.57,0a.86.86,0,0,1-.8-.91.84.84,0,0,1,.91-.8l.57,0a.86.86,0,0,1-.06,1.71Zm-5.13-.33-.57,0a.86.86,0,0,1-.8-.91.84.84,0,0,1,.91-.8l.57,0a.86.86,0,0,1-.06,1.71Zm-5.13-.33-.57,0a.86.86,0,0,1-.8-.91.84.84,0,0,1,.91-.8l.57,0a.86.86,0,0,1-.06,1.71Zm-5.13-.33-.57,0a.86.86,0,0,1-.8-.91.84.84,0,0,1,.91-.8l.57,0a.86.86,0,0,1-.06,1.71Zm-5.13-.33-.57,0a.86.86,0,0,1-.8-.91.84.84,0,0,1,.91-.8l.57,0a.86.86,0,0,1-.06,1.71Zm-5.13-.33-.57,0a.86.86,0,0,1-.8-.91.84.84,0,0,1,.91-.8l.57,0a.86.86,0,0,1-.06,1.71Zm-5.13-.33-.57,0a.86.86,0,0,1-.8-.91.84.84,0,0,1,.91-.8l.57,0a.86.86,0,0,1-.06,1.71Z" fill="#808184"/><polygon points="110.24 304.35 113.46 301.49 112.14 309.18 110.24 304.35" fill="#ffbe06"/><polygon points="86.55 235.27 87.64 238.08 91.38 236.67 90.07 233.08 86.55 235.27" fill="#58595b"/><path d="M85.89,236.09a48.86,48.86,0,0,1,5.73-2.37,49.76,49.76,0,0,1,5.7-1.62c1-.21,1.93-.39,2.9-.54l1.46-.2c.49-.06,1-.11,1.52-.15a50.12,50.12,0,0,1,6.12-.26,4.65,4.65,0,0,0,.26-9.31h-.46a50.55,50.55,0,0,1-6.15,0l-1.55-.08-1.61-.09-3.23-.2c-2.16-.14-4.35-.28-6.51-.44a64,64,0,0,1-6.43-.74h0a8.51,8.51,0,1,0,2.26,16Z" fill="#535354"/><path d="M85.89,236.09a48.86,48.86,0,0,1,5.73-2.37,49.76,49.76,0,0,1,5.7-1.62c1-.21,1.93-.39,2.9-.54l1.46-.2c.49-.06,1-.11,1.52-.15a50.12,50.12,0,0,1,6.12-.26,4.65,4.65,0,0,0,.26-9.31h-.46a50.55,50.55,0,0,1-6.15,0l-1.55-.08-1.61-.09-3.23-.2c-2.16-.14-4.35-.28-6.51-.44a64,64,0,0,1-6.43-.74h0a8.51,8.51,0,1,0,2.26,16Z" fill="url(#linear-gradient-14)"/><path d="M175.06,218.07,134.59,193.9a5,5,0,0,1-2.14-2.55l-.3-.78-12.27-32.36A8.59,8.59,0,0,1,136,152.12a9.47,9.47,0,0,1,.33,1.09l7.87,33.7-2.43-3.33,36.89,29.33a3.14,3.14,0,0,1-3.57,5.16Z" fill="#ccc"/><path d="M120.18,128.46c.82-.64,1.77-1.42,2.64-2.16s1.77-1.52,2.64-2.29c1.74-1.55,3.4-3.16,5-4.78a47.53,47.53,0,0,0,4.22-4.95,24.24,24.24,0,0,0,1.57-2.39c.17-.36.35-.72.54-1.07A5.59,5.59,0,0,1,137,110l.5-1.14A6.85,6.85,0,0,1,150.23,114c-.33.88-.68,1.75-1.06,2.61s-.8,1.46-1.21,2.18a37.77,37.77,0,0,1-2.62,3.68,60.73,60.73,0,0,1-5.61,6.06q-2.89,2.76-5.89,5.22-1.51,1.24-3,2.43c-1,.8-2,1.55-3.18,2.38a6.28,6.28,0,0,1-7.52-10Z" fill="url(#New_Gradient_Swatch_5-2)"/><path d="M160.61,105.95l-3.35,13A11.29,11.29,0,0,1,135,115.77l.5-13.46a12.74,12.74,0,0,1,25.46.94A13.44,13.44,0,0,1,160.61,105.95Z" fill="url(#New_Gradient_Swatch_5-3)"/><path d="M137.15,362l-11.74-72.16,1.4,4L75.68,226.48a14.93,14.93,0,0,1,23.79-18.06,16.31,16.31,0,0,1,1.17,1.79l41,74,.6,1.09a6.45,6.45,0,0,1,.8,2.92l1.87,73.09a3.9,3.9,0,0,1-7.75.73Z" fill="url(#New_Gradient_Swatch_5-4)"/><path d="M158.61,374.42l-20.8-7.17a4.44,4.44,0,0,1-3-3.61l-.15-1.17-1-7.92a6.32,6.32,0,0,1,12.54-1.64,6.61,6.61,0,0,1,0,1.52l-.88,7.94-3.11-4.78,19,11.05a3.2,3.2,0,0,1-2.65,5.79Z" fill="#4d70ee"/><polygon points="99.68 267.58 76.36 227.44 68.88 214.56 94.95 199.68 102.24 212.68 124.94 253.16 132.05 265.85 106.98 280.15 99.68 267.58" fill="#4d70ee"/><path d="M68.27,209l.81-2.84.8-2.66q.82-2.64,1.68-5.24,1.73-5.21,3.67-10.34c2.61-6.85,5.48-13.63,8.81-20.35,1.65-3.36,3.42-6.7,5.34-10s4-6.61,6.24-9.86A89.41,89.41,0,0,1,112.56,129l.08-.06a16.29,16.29,0,0,1,20.59,25.24c-.31.25-.65.51-1,.73a57.73,57.73,0,0,0-11.6,11.32c-1.86,2.3-3.65,4.77-5.37,7.35s-3.39,5.24-5,8c-3.21,5.49-6.14,11.3-8.87,17.23-1.36,3-2.66,6-3.9,9q-.93,2.27-1.8,4.54l-.85,2.26-.76,2.11-.2.55A13.48,13.48,0,0,1,68.27,209Z" fill="#82e1b9"/><path d="M68.33,205.91l.84-2.76.82-2.58c.56-1.7,1.13-3.39,1.72-5.07q1.77-5,3.76-10c2.66-6.61,5.59-13.15,9-19.61a152.49,152.49,0,0,1,11.63-19.08A92.43,92.43,0,0,1,112.56,129l.1-.08a16.29,16.29,0,1,1,20.58,25.25c-.31.25-.66.52-1,.74a60.62,60.62,0,0,0-11.53,10.93,122,122,0,0,0-10.35,14.63c-3.22,5.24-6.18,10.78-8.93,16.46-1.37,2.84-2.69,5.72-3.94,8.62-.62,1.45-1.24,2.9-1.82,4.35L94.82,212l-.77,2-.22.58a13.48,13.48,0,0,1-25.5-8.73Z" fill="#82e1b9"/><polygon points="123.7 162.84 117.06 138.67 125.77 160.6 123.7 162.84" fill="#43d296"/><path d="M160.24,98.14H148.73a3,3,0,0,0-3,3.26l.49,5.25-4.14-3a1.83,1.83,0,0,0-2.46.28l-1.24,1.42a1.83,1.83,0,0,0-.42,1.55l1.44,7.4L133.29,111l-1-1.61c-2.93-4.67-4.18-13-4.18-13s.55-9.71,11.9-12.9c9-2.54,17.25,2.22,17.25,2.22Z" fill="#404041"/><path d="M142,126.26a10.22,10.22,0,0,1-4.09-6,13.55,13.55,0,0,0,2.29,7.83Z" fill="#ccc"/><path d="M179.48,219.91l-37.16-19.3a5.18,5.18,0,0,1-2.46-2.75l-.23-.59-22-57.56a8.58,8.58,0,1,1,16-6.12c.07.19.15.41.21.61l17.62,59-2.69-3.35,34.27,24.06a3.5,3.5,0,0,1-3.62,6Z" fill="url(#New_Gradient_Swatch_5-5)"/><path d="M492.64,376.28l14.63-10.55-1.64,7.92c-5.05-5.69-10.18-11.33-15.28-17L474.92,339.8,459.39,323c-5.19-5.58-10.34-11.2-15.59-16.73a10,10,0,0,1,.39-14.12q.35-.33.73-.63l1.29-1L462,278.24q7.93-6.14,15.8-12.36,15.77-12.4,31.41-25a17.38,17.38,0,1,1,21.86,27,18.51,18.51,0,0,1-2.74,1.82q-17.72,9.47-35.25,19.21-8.8,4.82-17.53,9.74l-17.49,9.8,2.41-15.75c4.34,6.27,8.78,12.46,13.18,18.69l13.23,18.65,13.34,18.56c4.49,6.15,8.95,12.33,13.48,18.44l.56.76a4.65,4.65,0,0,1-1,6.5,4.78,4.78,0,0,1-1.24.66l-17,5.92a2.64,2.64,0,0,1-2.41-4.63Z" fill="#ccc"/><path d="M491.45,377.28l19.6-9.57-1,.61,1.39-1.77a4.41,4.41,0,0,1,6.93,5.44,4.49,4.49,0,0,1-1.39,1.17l-2,1.06-1,.61-20.66,7a2.46,2.46,0,0,1-1.87-4.54Z" fill="#43d296"/><g opacity="0.5"><ellipse cx="354.31" cy="467.95" rx="67.71" ry="12.6" fill="url(#radial-gradient-4)"/></g><g opacity="0.5"><ellipse cx="562.47" cy="467.95" rx="67.71" ry="12.6" fill="url(#radial-gradient-5)"/></g><polyline points="482.28 406.05 501.58 406.05 508.91 406.05 511.24 406.05 516.78 406.05 516.79 406.05 525.44 406.05 525.45 406.05 533.33 406.05 540.75 406.05 545.9 406.05" fill="none"/><polyline points="437.07 406.05 426.92 406.05 423.39 406.05 400.82 406.05 394.24 406.05 389.18 406.05 385.85 406.05 381.82 406.05" fill="none"/><polyline points="565.99 406.05 540.75 406.05 533.33 406.05 525.45 406.05 525.44 406.05 516.79 406.05 516.78 406.05 511.24 406.05 508.91 406.05 501.58 406.05 497.35 406.05" fill="none"/><rect x="472.1" y="392.05" width="32.17" height="4.65" transform="translate(-131.86 491.32) rotate(-47.82)" fill="#231f20"/><rect x="493.03" y="377.35" width="20.61" height="5.98" transform="translate(-97.1 186.75) rotate(-19.21)" fill="#231f20"/><polygon points="574.78 465 574.56 464.12 547.64 355.82 549.39 355.38 549.61 356.26 576.53 464.56 574.78 465" fill="#bbbdbf"/><polygon points="547.41 464.5 545.68 464 545.92 463.14 576.76 355.88 578.5 356.38 578.25 357.25 547.41 464.5" fill="#bbbdbf"/><rect x="505.84" y="409.29" width="112.5" height="1.8" transform="translate(-127.26 505.07) rotate(-43.96)" fill="#bbbdbf"/><polygon points="507.71 424.64 507.28 422.88 508.15 422.67 616.46 395.75 616.89 397.5 616.02 397.71 507.71 424.64" fill="#bbbdbf"/><polygon points="615.9 426.6 615.03 426.35 507.78 395.51 508.27 393.78 509.14 394.03 616.4 424.87 615.9 426.6" fill="#bbbdbf"/><rect x="561.18" y="353.94" width="1.8" height="112.5" transform="translate(-127.25 505.1) rotate(-43.96)" fill="#bbbdbf"/><circle cx="562.09" cy="410.19" r="11.33" transform="translate(-48.06 75.64) rotate(-7.38)" fill="#535354"/><path id="_Compound_Clipping_Path_7" data-name="&lt;Compound Clipping Path&gt;" d="M562.3,361a48.87,48.87,0,1,1-48.87,48.87A48.92,48.92,0,0,1,562.3,361m0-9.31a58.17,58.17,0,1,0,58.17,58.17,58.17,58.17,0,0,0-58.17-58.17Z" fill="url(#linear-gradient-4)"/><g clip-path="url(#clip-path-8)"><image width="171" height="160" transform="translate(470.95 328.53)" opacity="0.6" xlink:href="two-bikes3.png" style="mix-blend-mode:luminosity"/><g clip-path="url(#clip-path-9)"><path d="M562.09,472.39a62.49,62.49,0,1,1,62.49-62.49A62.57,62.57,0,0,1,562.09,472.39Zm0-116.35a53.85,53.85,0,1,0,53.85,53.85A53.91,53.91,0,0,0,562.09,356Z" fill="#ffd900"/></g></g><path d="M562.08,347.4a62.57,62.57,0,0,0-62.49,62.5c0,.92,0,1.83.07,2.75h8.64c0-.91-.07-1.83-.07-2.75a53.85,53.85,0,0,1,107.5-4.69l8.84,5.17c0-.16,0-.32,0-.48A62.57,62.57,0,0,0,562.08,347.4Z" fill="#ffd900"/><polygon points="363.95 465 363.73 464.12 336.81 355.82 338.56 355.38 365.7 464.56 363.95 465" fill="#bbbdbf"/><polygon points="336.58 464.5 334.85 464 365.93 355.88 367.67 356.38 367.42 357.25 336.58 464.5" fill="#bbbdbf"/><rect x="295" y="409.29" width="112.5" height="1.8" transform="translate(-186.32 358.73) rotate(-43.96)" fill="#bbbdbf"/><polygon points="296.88 424.64 296.45 422.88 297.32 422.67 405.63 395.75 406.06 397.5 405.19 397.71 296.88 424.64" fill="#bbbdbf"/><polygon points="405.07 426.6 404.2 426.35 296.94 395.51 297.44 393.78 298.31 394.03 405.56 424.87 405.07 426.6" fill="#bbbdbf"/><rect x="350.35" y="353.94" width="1.8" height="112.5" transform="translate(-186.32 358.75) rotate(-43.96)" fill="#bbbdbf"/><circle cx="351.25" cy="410.19" r="11.33" transform="translate(-49.8 48.54) rotate(-7.38)" fill="#535354"/><path id="_Compound_Clipping_Path_8" data-name="&lt;Compound Clipping Path&gt;" d="M351.25,361a48.87,48.87,0,1,1-48.87,48.87A48.92,48.92,0,0,1,351.25,361m0-9.31a58.17,58.17,0,1,0,58.17,58.17,58.17,58.17,0,0,0-58.17-58.17Z" fill="url(#linear-gradient-5)"/><g clip-path="url(#clip-path-10)"><image width="155" height="154" transform="translate(274.95 334.53)" opacity="0.6" xlink:href="two-bikes4.png" style="mix-blend-mode:luminosity"/><g clip-path="url(#clip-path-11)"><path d="M351.25,472.61A62.71,62.71,0,1,1,414,409.9,62.78,62.78,0,0,1,351.25,472.61Zm0-116.35a53.64,53.64,0,1,0,53.64,53.64A53.7,53.7,0,0,0,351.25,356.26Z" fill="#535354"/></g></g><path d="M357.24,347.48v9.12a53.71,53.71,0,0,1,47.66,53.3H414A62.79,62.79,0,0,0,357.24,347.48Z" fill="#535354"/><g clip-path="url(#clip-path-12)"><path d="M562.09,472.39a62.49,62.49,0,1,1,62.49-62.49A62.57,62.57,0,0,1,562.09,472.39Zm0-116.35a53.85,53.85,0,1,0,53.85,53.85A53.91,53.91,0,0,0,562.09,356Z" fill="#ffbe06"/></g><polygon points="495.44 365.8 491.07 364.19 522.41 278.58 526.77 280.19 495.44 365.8" fill="#808184"/><rect x="355.63" y="325.16" width="76.18" height="4.65" transform="translate(-49.82 583.5) rotate(-69.75)" fill="#535354"/><rect x="449.71" y="370.34" width="80.95" height="7.98" transform="translate(-30.67 704.65) rotate(-69.75)" fill="#ffd900"/><path d="M400.42,321.11l0,.08-1.88,4.69-6.73,16.75-.92,2.3-4.76,11.87-2.43,6c-.85,2-1.72,4-2.63,6a183.27,183.27,0,0,1-12.56,22.8c-1.18,1.83-2.39,3.62-3.63,5.4s-2.5,3.51-3.76,5.23l-7.49,10.37a2.86,2.86,0,0,1-4.66-3.31l7.32-10.49c2.48-3.51,4.79-6.93,7-10.52A175.57,175.57,0,0,0,374.82,366c.84-1.92,1.62-3.85,2.4-5.79l2.24-5.94,4.5-12,2.76-7.36,6.22-16.6a3.53,3.53,0,0,1,.44-.85,4,4,0,0,1,7,3.65Z" fill="#ffd900"/><path d="M564,411.5a2.32,2.32,0,0,1-1.59-.63L497.75,350.5a2.33,2.33,0,1,1,3.18-3.4l64.69,60.37a2.33,2.33,0,0,1-1.59,4Z" fill="#ffd900"/><path d="M534.22,377.32a3,3,0,0,1-2.05-.82l-18.88-17.84,8.17-9a3,3,0,0,1,4.42,4l-4.21,4.61,14.6,13.8a3,3,0,0,1-2.06,5.17Z" fill="#535354"/><path d="M483.76,393.87H469.88A55.47,55.47,0,0,1,447,389L419.4,376.59a2.33,2.33,0,1,1,1.9-4.25l27.64,12.39a50.86,50.86,0,0,0,20.93,4.48h13.88a2.33,2.33,0,0,1,0,4.65Z" fill="#ffd900"/><path d="M566.56,410a4,4,0,0,1-3.92,3.93l-55.16.89-27.58.45-3.45.05-1.72,0h-1.81a62,62,0,0,1-22.23-4.12,62.54,62.54,0,0,1-29.42-23.39l-1-1.53-.94-1.45-1.88-2.88-7.54-11.55-18.12-27.76-5-7.73,6.22-16.6a3.53,3.53,0,0,1,.44-.85l5.11,8.42,22.7,37.4,7.15,11.79,2.69,4.42.85,1.37a49.47,49.47,0,0,0,3.57,5,50.65,50.65,0,0,0,31.43,18,52.92,52.92,0,0,0,6.19.59l.78,0,.86,0,1.72,0,3.45.05,27.58.45,55.16.89A4,4,0,0,1,566.56,410Z" fill="#ffd900"/><path d="M566.56,410a4,4,0,0,1-3.92,3.93l-55.16.89-27.58.45-3.45.05-1.72,0h-1.81a62,62,0,0,1-22.23-4.12,62.54,62.54,0,0,1-29.42-23.39l-1-1.53-.94-1.45-1.88-2.88-7.54-11.55-18.08-27.71,2.39-5.37L424,384.46a55.66,55.66,0,0,0,46.73,25.89l88.34.47a12.31,12.31,0,0,0,7.21-2.28A3.91,3.91,0,0,1,566.56,410Z" fill="#ffbe06"/><path d="M508.83,340.91a1.66,1.66,0,0,1-.6-.11l-10-3.88a1.66,1.66,0,1,1,1.2-3.1l10,3.88a1.66,1.66,0,0,1-.6,3.21Z" fill="#535354"/><path d="M403.06,320.42a1.66,1.66,0,0,1-.6-.11l-10-3.88a1.66,1.66,0,0,1,1.2-3.1l10,3.88a1.66,1.66,0,0,1-.6,3.21Z" fill="#535354"/><path d="M403.06,320.42a1.66,1.66,0,0,1-.6-.11l-10-3.88a1.66,1.66,0,0,1,1.2-3.1l10,3.88a1.66,1.66,0,0,1-.6,3.21Z" fill="#535354"/><path id="_Clipping_Path_4" data-name="&lt;Clipping Path&gt;" d="M457,411.16a18.45,18.45,0,0,0,34,8.68,24.17,24.17,0,0,1,18.88-10.94l47.07-3.17-15.29-14.2H475.4A18.45,18.45,0,0,0,457,411.16Z" fill="url(#linear-gradient-6)"/><g clip-path="url(#clip-path-13)"><polygon points="477.64 411.55 468.54 430.37 464.47 426.01 477.64 411.55"/></g><rect x="449.01" y="419.58" width="32.17" height="4.65" transform="translate(-159.85 483.24) rotate(-47.82)" fill="#535354"/><rect x="443.82" y="432.33" width="20.61" height="5.98" transform="translate(-117.93 173.62) rotate(-19.21)" fill="#535354"/><path d="M400.28,302.61l-4.54-36.35a8.77,8.77,0,0,1,6.29-9.48l14.9-4.31,1.29,4.47-14.9,4.31a4.13,4.13,0,0,0-3,4.46L404.9,302Z" fill="#535354"/><path d="M406.33,262.28a4.32,4.32,0,0,1-1.2-8.47l11.24-3.25a4.32,4.32,0,0,1,2.4,8.3l-11.24,3.25A4.32,4.32,0,0,1,406.33,262.28Z" fill="url(#linear-gradient-18)"/><path d="M492.85,426.32a1,1,0,0,1-.06-2l.66,0a1,1,0,0,1,1.06.93,1,1,0,0,1-.93,1.06l-.66,0Zm6-.39a1,1,0,0,1-.06-2l.66,0a1,1,0,0,1,1.06.93,1,1,0,0,1-.93,1.06l-.66,0Zm6-.39a1,1,0,0,1-.06-2l.66,0a1,1,0,0,1,1.06.93,1,1,0,0,1-.93,1.06l-.66,0Zm6-.39a1,1,0,0,1-.06-2l.66,0a1,1,0,0,1,1.06.93,1,1,0,0,1-.93,1.06l-.66,0Zm6-.39a1,1,0,0,1-.06-2l.66,0a1,1,0,0,1,1.06.93,1,1,0,0,1-.93,1.06l-.66,0Zm6-.39a1,1,0,0,1-.06-2l.66,0a1,1,0,0,1,1.06.93,1,1,0,0,1-.93,1.06l-.66,0Zm6-.39a1,1,0,0,1-.06-2l.66,0a1,1,0,0,1,1.06.93,1,1,0,0,1-.93,1.06l-.66,0Zm6-.39a1,1,0,0,1-.06-2l.66,0a1,1,0,0,1,1.06.93,1,1,0,0,1-.93,1.06l-.66,0Zm6-.39a1,1,0,0,1-.06-2l.66,0a1,1,0,0,1,1.06.93,1,1,0,0,1-.93,1.06l-.66,0Zm6-.39a1,1,0,0,1-.06-2l.66,0a1,1,0,0,1,1.06.93,1,1,0,0,1-.93,1.06l-.66,0Zm6-.39a1,1,0,0,1-.06-2l.66,0a1,1,0,0,1,1.06.93,1,1,0,0,1-.93,1.06l-.66,0Z" fill="#808184"/><polygon points="501.9 354.38 498.16 351.06 499.7 360.01 501.9 354.38" fill="#ffbe06"/><polygon points="526.28 281.65 525.01 284.92 520.66 283.29 522.18 279.1 526.28 281.65" fill="#58595b"/><path d="M527.05,282.61a56.85,56.85,0,0,0-6.67-2.75,57.9,57.9,0,0,0-6.64-1.88c-1.12-.24-2.24-.45-3.38-.63-.57-.09-1.13-.17-1.69-.24s-1.18-.13-1.77-.18a58.31,58.31,0,0,0-7.12-.31,5.42,5.42,0,0,1-.3-10.83H500a58.83,58.83,0,0,0,7.16,0l1.8-.1,1.87-.11,3.75-.24c2.52-.16,5.06-.32,7.58-.52a74.41,74.41,0,0,0,7.48-.86h0a9.9,9.9,0,1,1-2.63,18.63Z" fill="#535354"/><path d="M527.05,282.61a56.85,56.85,0,0,0-6.67-2.75,57.9,57.9,0,0,0-6.64-1.88c-1.12-.24-2.24-.45-3.38-.63-.57-.09-1.13-.17-1.69-.24s-1.18-.13-1.77-.18a58.31,58.31,0,0,0-7.12-.31,5.42,5.42,0,0,1-.3-10.83H500a58.83,58.83,0,0,0,7.16,0l1.8-.1,1.87-.11,3.75-.24c2.52-.16,5.06-.32,7.58-.52a74.41,74.41,0,0,0,7.48-.86h0a9.9,9.9,0,1,1-2.63,18.63Z" fill="url(#linear-gradient-19)"/><path d="M412.67,251.73l50.23-13.36-5.71,5.45,5.13-32.67a10,10,0,1,1,19.74,3.1,10.79,10.79,0,0,1-.38,1.57l-10.32,31.42-.35,1.05a6.47,6.47,0,0,1-5.37,4.4l-51.6,6.2a3.65,3.65,0,0,1-1.37-7.16Z" fill="#ccc"/><path d="M472.94,197.76c-1.35-1-2.48-1.83-3.7-2.76s-2.36-1.86-3.53-2.82q-3.5-2.86-6.84-6.06a70.51,70.51,0,0,1-6.51-7,43.85,43.85,0,0,1-3-4.27c-.48-.84-.95-1.68-1.41-2.53s-.84-2-1.23-3a8,8,0,0,1,14.72-6l.59,1.34a6.5,6.5,0,0,1,.33,1c.21.4.43.82.62,1.24a28.11,28.11,0,0,0,1.82,2.78,55.17,55.17,0,0,0,4.91,5.75c1.82,1.89,3.75,3.76,5.77,5.56q1.51,1.35,3.06,2.66c1,.85,2.12,1.77,3.07,2.51l.09.07a7.29,7.29,0,0,1-8.72,11.68Z" fill="url(#New_Gradient_Swatch_5-6)"/><path d="M463.74,155.64l.57,15.63a13.11,13.11,0,0,1-25.8,3.74l-3.89-15.15a14.79,14.79,0,0,1,28.66-7.35A15.6,15.6,0,0,1,463.74,155.64Z" fill="url(#New_Gradient_Swatch_5-7)"/><path d="M441.22,431.88l20.61-14-3.16,4.57c.37-7.19.65-14.39,1-21.58l.8-21.6.67-21.61c.21-7.2.46-14.4.61-21.61a7.59,7.59,0,0,1,1-3.57l.78-1.38c7.13-12.56,14.35-25.07,21.41-37.68S499,268.23,506,255.55a17.36,17.36,0,0,1,30.45,16.7,18.63,18.63,0,0,1-1.68,2.51q-13.57,16.93-26.89,34c-8.94,11.36-17.72,22.82-26.59,34.22L483,338c-1.19,7.11-2.28,14.23-3.41,21.35l-3.36,21.36L473,402.12c-1,7.13-2.09,14.25-3.07,21.38l-.13,1a4.44,4.44,0,0,1-3,3.62l-23.71,7.67a2.17,2.17,0,0,1-1.89-3.86Z" fill="url(#New_Gradient_Swatch_5-8)"/><path d="M514.83,266.47l-1.06-1.59-1.21-1.77c-.82-1.19-1.68-2.38-2.54-3.56L507.38,256l-2.71-3.49c-3.67-4.63-7.53-9.09-11.52-13.35s-8.14-8.31-12.41-12.09l-3.22-2.79-3.29-2.63-1.64-1.31-1.68-1.21-3.35-2.43-.59-.43a18.93,18.93,0,0,1,22.21-30.65c.42.31.86.65,1.25,1l4.07,3.5,2,1.76,1.93,1.82,3.83,3.65,3.65,3.76c4.8,5,9.33,10.25,13.53,15.64s8.2,10.87,11.94,16.51l2.76,4.26,2.68,4.33c.88,1.46,1.75,2.92,2.61,4.42l1.29,2.27,1.36,2.49a15.65,15.65,0,0,1-26.7,16.27Z" fill="#4d70ee"/><path d="M514.28,266.05c-.78-1.06-1.77-2.28-2.74-3.4s-2-2.27-3-3.39c-2-2.26-4.14-4.4-6.26-6.57-4.29-4.28-8.78-8.36-13.41-12.26-1.16-1-2.31-2-3.5-2.89l-1.77-1.42a15.89,15.89,0,0,0-1.83-1.34c-2.59-1.62-6.29-1.93-8.88-3.46a11.86,11.86,0,0,1-3.28-3,28.22,28.22,0,0,1-6.23-13.79l-.07-.54a16,16,0,0,1,13.7-18l.52-.06a23.15,23.15,0,0,1,6,.21,27.52,27.52,0,0,1,5.18,1.32,31.8,31.8,0,0,1,4.61,2.09,14.1,14.1,0,0,1,3.89,3,18.68,18.68,0,0,1,2.68,4.36,22.38,22.38,0,0,0,2.63,4.36,18.12,18.12,0,0,0,1.66,1.77l1.73,1.69,3.44,3.38,13.77,13.44,3.48,3.32q1.72,1.68,3.49,3.32c1.17,1.11,2.34,2.21,3.54,3.31l3.7,3.39.28.26a15.76,15.76,0,0,1-21.28,23.24A16.76,16.76,0,0,1,514.28,266.05Z" fill="#4d70ee"/><path d="M469.66,228.05l15.25-29.34-10.84,33.09S472.86,231.9,469.66,228.05Z" fill="#1140e8"/><path d="M444.54,233.46s-18.86,23.29-25.61,26.66-11.09-1.62-13.3-6.06Z" fill="url(#New_Gradient_Swatch_5-9)"/><path d="M416,249.69l39.15-22.07-3.56,3.66L466,191.85a10,10,0,1,1,18.74,6.84,11,11,0,0,1-.51,1.16l-19.28,37.3-.45.87a5.91,5.91,0,0,1-3.11,2.79L419.43,257a4.07,4.07,0,0,1-3.46-7.33Z" fill="url(#New_Gradient_Swatch_5-10)"/><polygon points="541.34 267.14 508.05 308.57 460.95 278.44 509.68 239.87 541.34 267.14" fill="#4d70ee"/><path d="M434.24,152.62A18.12,18.12,0,0,1,449.35,160a9,9,0,0,1,3.09-1.58,9.17,9.17,0,0,1,11.36,6.26,9.28,9.28,0,0,1,.24,4.07,17.38,17.38,0,1,0-29.79-16.17Z" fill="#404041"/><path d="M441.25,431.53l23-11-1.68,1.25,2.27-4a4.91,4.91,0,1,1,8.55,4.82,5,5,0,0,1-1,1.23L469,426.92l-.84.76a2.38,2.38,0,0,1-.84.49l-24.23,7.92a2.46,2.46,0,0,1-1.83-4.56Z" fill="#82e1b9"/><path d="M313.51,192.77h-6.29v-1.16a.44.44,0,0,0,0-.06,3.39,3.39,0,0,1,3.39-3.39h2.88a2,2,0,0,0,0-4H310.6a7.39,7.39,0,0,0-7.38,7.38v22.27a2,2,0,0,0,4,.07v-8.74h0v-8.38h6.29a2,2,0,0,0,0-4" fill="url(#linear-gradient-20)"/><path d="M327,192.77a11.52,11.52,0,1,0,11.52,11.52A11.53,11.53,0,0,0,327,192.77m0,19a7.53,7.53,0,1,1,7.53-7.53,7.54,7.54,0,0,1-7.53,7.53" fill="url(#linear-gradient-20)"/><path d="M287.06,192.77a11.52,11.52,0,1,0,11.52,11.52,11.53,11.53,0,0,0-11.52-11.52m0,19a7.53,7.53,0,1,1,7.53-7.53,7.54,7.54,0,0,1-7.53,7.53" fill="url(#linear-gradient-20)"/><path d="M313.51,192.77h-6.29v-1.16a.44.44,0,0,0,0-.06,3.39,3.39,0,0,1,3.39-3.39h2.88a2,2,0,0,0,0-4H310.6a7.39,7.39,0,0,0-7.38,7.38v22.27a2,2,0,0,0,4,.07v-8.74h0v-8.38h6.29a2,2,0,0,0,0-4" fill="#231f20"/><path d="M327,192.77a11.52,11.52,0,1,0,11.52,11.52A11.53,11.53,0,0,0,327,192.77m0,19a7.53,7.53,0,1,1,7.53-7.53,7.54,7.54,0,0,1-7.53,7.53" fill="#231f20"/><path d="M287.06,192.77a11.52,11.52,0,1,0,11.52,11.52,11.53,11.53,0,0,0-11.52-11.52m0,19a7.53,7.53,0,1,1,7.53-7.53,7.54,7.54,0,0,1-7.53,7.53" fill="#231f20"/><polygon points="144.35 111.14 147.99 97.22 145.04 96.45 142.24 107.17 127.25 101.9 126.25 104.77 144.35 111.14"/><path d="M164,87.68S163.42,91,156.47,95s-12.56,6.37-17.39,5.73-6.09-2.48-8.72-.77c-1.93,1.26-.08,4.35-2.06,5.8-1.57,1.14-2.22.55-2.22.55l-2.76-5.12,4.54-5.5,12.57-4.39s8.47-.48,10-1S164,87.68,164,87.68Z" fill="url(#linear-gradient-23)"/><path d="M135.64,76.69c12.77-3.92,26.42,3.42,29,11.78l0,.12c-3.9,2.52-12.43,7.62-21.06,10.17-8.23,1.93-8.14-3.2-13.9-1.44-3,.92-3.49,6.11-1.23,9.95-4.84-.3-6.21-4.4-7.13-7.38C118.78,91.54,122,80.88,135.64,76.69Z" fill="url(#linear-gradient-24)"/><path d="M131.4,88.6c12.3-3.77,14.66,4.82,27.42,3.51a77.61,77.61,0,0,1-15.21,6.66c-8.23,1.93-8.14-3.2-13.9-1.44-3,.92-3.49,6.11-1.23,9.95-4.84-.3-6.21-4.4-7.13-7.38-.14-.45-.25-.9-.36-1.36A15.38,15.38,0,0,1,131.4,88.6Z" fill="#1140e8"/><polygon points="147.32 129.87 150.29 129.32 144.47 107.91 141.53 108.7 147.32 129.87"/><rect x="142.68" y="113.07" width="3.58" height="0.92" transform="translate(-23.68 39.47) rotate(-14.39)" fill="#606060"/><path d="M142.24,114.2l.63,2.32a.76.76,0,0,0,.93.53l2.93-.8a.76.76,0,0,0,.53-.93l-.63-2.32a.76.76,0,0,0-.93-.53l-2.93.8A.76.76,0,0,0,142.24,114.2Zm.73-.2,2.93-.8.63,2.32-2.93.8Z" fill="url(#linear-gradient-25)"/><polygon points="452.45 166.65 448.6 151.89 451.71 151.08 454.69 162.44 470.57 156.86 471.64 159.9 452.45 166.65"/><path d="M431.64,141.79s.6,3.56,8,7.71,13.31,6.75,18.43,6.08,6.45-2.63,9.24-.82c2,1.33.08,4.61,2.19,6.15,1.67,1.21,2.35.58,2.35.58l2.93-5.42-4.81-5.83-13.32-4.65s-9-.5-10.64-1S431.64,141.79,431.64,141.79Z" fill="url(#linear-gradient-26)"/><path d="M461.68,130.15c-13.53-4.15-28,3.63-30.71,12.49l0,.13c4.13,2.67,13.17,8.08,22.31,10.78,8.72,2,8.62-3.39,14.73-1.52,3.19,1,3.7,6.47,1.3,10.54,5.12-.32,6.58-4.66,7.56-7.83C479.55,145.87,476.13,134.58,461.68,130.15Z" fill="url(#linear-gradient-27)"/><path d="M466.18,142.76c-13-4-15.53,5.11-29.05,3.72a82.26,82.26,0,0,0,16.12,7.06c8.72,2,8.62-3.39,14.73-1.52,3.19,1,3.7,6.47,1.3,10.54,5.12-.32,6.58-4.66,7.56-7.83.15-.47.27-1,.38-1.44A16.3,16.3,0,0,0,466.18,142.76Z" fill="#f9176a"/><polygon points="449.3 186.5 446.16 185.92 452.33 163.22 455.44 164.07 449.3 186.5"/><rect x="451.84" y="167.28" width="0.97" height="3.8" transform="translate(176.02 565.26) rotate(-75.61)" fill="#606060"/><path d="M454.12,168.91l-3.11-.85a.81.81,0,0,0-1,.57l-.67,2.46a.81.81,0,0,0,.57,1l3.11.85a.81.81,0,0,0,1-.57l.67-2.46A.81.81,0,0,0,454.12,168.91Zm-.89,3.24-3.11-.85.67-2.46,3.11.85Z" fill="url(#linear-gradient-28)"/></g></g></svg>